<svg width="6168" height="1323" viewBox="0 0 6168 1323" fill="none" xmlns="http://www.w3.org/2000/svg">
<path d="M5963 1035.38C5033.68 1035.38 4106.36 1035.39 3179.05 1035.27C3167.13 1035.27 3154.93 1035 3143.34 1032.55C3107.28 1024.96 3081.64 994.246 3079.46 957.577C3079.18 952.926 3079.32 948.247 3079.32 943.581C3079.31 748.918 3079.26 554.254 3079.45 359.591C3079.46 349.034 3080.14 338.144 3082.75 327.984C3091.77 292.846 3122.34 269.033 3158.53 267.818C3164.53 267.617 3170.53 267.756 3176.53 267.756C4141.18 267.755 5105.83 267.755 6070.48 267.757C6076.48 267.757 6082.49 267.615 6088.48 267.841C6131.21 269.449 6165.23 303.393 6166.94 346.064C6167.1 350.058 6167.01 354.063 6167.01 358.062C6167.01 553.392 6167.03 748.723 6166.94 944.053C6166.94 952.68 6167.02 961.531 6165.25 969.894C6157.12 1008.25 6125.27 1034.11 6085 1035.25C6066.34 1035.78 6047.67 1035.37 6029 1035.38C6007.67 1035.39 5986.33 1035.38 5963 1035.38ZM4868.81 500.341C4838.86 500.404 4808.91 500.451 4778.96 500.586C4777.73 500.592 4776.5 501.419 4774.21 502.249C4773.72 506.232 4772.69 510.712 4772.68 515.193C4772.59 594.391 4772.6 673.589 4772.68 752.787C4772.69 756.521 4773.59 760.253 4774.16 764.622C4780.02 764.92 4784.58 765.345 4789.14 765.353C4821.09 765.409 4853.03 765.47 4884.98 765.314C4892.95 765.275 4900.95 764.79 4908.87 763.903C4922.27 762.404 4934.8 757.928 4946.36 751.065C4990.69 724.747 4991.2 664.472 4947.35 637.3C4943 634.605 4938.35 632.403 4932.22 629.103C4938.18 625.05 4942.95 621.794 4947.73 618.548C4982.6 594.879 4980.53 545.964 4951.75 521.995C4940.79 512.87 4928.07 507.449 4914.36 503.918C4900.65 500.388 4886.72 500.147 4868.81 500.341ZM5515.02 701.77C5517.75 696.443 5520.85 691.271 5523.15 685.766C5547.92 626.642 5530.76 553.864 5469.47 518.871C5414.65 487.574 5358.23 487.715 5304.5 521.115C5223.02 571.765 5222.53 689.772 5302.29 743.14C5366.67 786.219 5468.95 774.403 5515.02 701.77ZM3903.61 638C3903.72 678.607 3903.81 719.215 3904 759.823C3904 760.977 3905.03 762.127 3905.72 763.561C3907.41 764.054 3909.29 765.096 3911.18 765.085C3947.78 764.876 3984.4 765.006 4020.99 764.052C4040.45 763.544 4059.08 757.883 4076.67 749.579C4112.61 732.614 4136.19 705.169 4144.13 665.867C4146.74 652.965 4147.65 639.407 4147.12 626.237C4145.05 574.225 4120.37 536.795 4072.71 515.114C4050.56 505.039 4027.07 500.721 4002.88 500.46C3974.26 500.15 3945.63 500.336 3917 500.417C3913.19 500.428 3909.38 501.083 3906.34 501.368C3905.15 503.882 3904.13 505.038 3904.12 506.199C3903.89 548.799 3903.76 591.399 3903.61 638ZM5014.93 630C5015.03 673.303 5015.11 716.607 5015.28 759.91C5015.29 761.07 5016.33 762.226 5017.27 764.182C5031.77 765.471 5046.64 767.292 5062.2 762.699C5062.2 755.219 5062.2 748.592 5062.2 741.965C5062.2 719.312 5062.11 696.658 5062.28 674.006C5062.32 669.598 5063.37 665.198 5064 660.487C5075.7 660.487 5086.23 660.487 5097.3 660.487C5108.32 678.208 5119.04 695.805 5130.11 713.181C5141.12 730.468 5150.59 748.784 5163.42 765.133C5181.01 764.625 5198.06 767.308 5216.8 763.169C5204.87 744.394 5193.71 727.121 5182.86 709.65C5172.12 692.336 5159.8 675.942 5150.23 656.719C5156.78 654.002 5162.27 651.834 5167.67 649.464C5197.65 636.313 5213.18 612.582 5213.77 580.626C5214.35 549.194 5198.89 526.094 5170.48 512.085C5154.04 503.975 5136.45 500.597 5118.28 500.457C5087.64 500.219 5056.99 500.351 5026.34 500.426C5023.18 500.433 5020.01 501.103 5017.58 501.383C5016.45 503.792 5015.44 504.945 5015.43 506.104C5015.21 546.069 5015.08 586.034 5014.93 630ZM6038.71 538.235C6024.76 525.438 6008.64 516.388 5990.76 510.344C5972.34 504.118 5953.42 500.625 5933.99 500.47C5905.37 500.241 5876.75 500.365 5848.13 500.412C5844.28 500.418 5840.43 500.843 5835.65 501.13C5835.09 505.28 5834.31 508.419 5834.31 511.559C5834.25 592.766 5834.26 673.973 5834.39 755.179C5834.39 758.229 5835.77 761.277 5836.45 764.057C5876.05 764.057 5914.64 764.867 5953.17 763.751C5976 763.089 5997.53 755.424 6017.45 743.968C6043.97 728.708 6062.88 706.778 6071.2 677.282C6085.54 626.435 6078.55 579.768 6038.71 538.235ZM4559.35 574.166C4535.4 636.799 4511.44 699.431 4487.02 763.274C4504.28 766.008 4519.74 765.692 4535.53 763.725C4542.4 746.214 4548.93 729.566 4555.28 713.359C4572.62 711.049 4657.1 711.045 4674.02 713.293C4682.45 729.48 4685.83 748.184 4695.83 764.96C4708.52 764.96 4721.13 765.037 4733.73 764.895C4736.26 764.867 4738.78 764.004 4741.32 763.521C4737.25 745.716 4648.55 514.898 4640.3 500.623C4623.36 500.623 4606.15 500.623 4587.89 500.623C4578.69 524.289 4569.57 547.776 4559.35 574.166ZM5746.85 742.685C5750.12 749.819 5750.91 758.156 5757.41 764.488C5772.12 764.742 5787.13 766.443 5802.87 763.232C5802.03 759.716 5801.7 757.103 5800.78 754.715C5769.4 672.713 5737.99 590.725 5706.48 508.774C5705.33 505.805 5703.19 503.219 5701.47 500.369C5683.71 500.175 5666.5 498.909 5649.05 501.132C5646.84 506.404 5644.67 511.219 5642.77 516.138C5630.07 549.024 5617.4 581.919 5604.78 614.836C5587.64 659.554 5570.54 704.289 5553.46 749.033C5551.67 753.739 5548.72 758.422 5552.15 765.04C5567.08 763.718 5582.22 767.549 5596.98 762.867C5603.71 745.59 5610.19 728.994 5616.7 712.285C5656.45 712.285 5694.95 712.285 5734.71 712.285C5738.39 721.387 5742.09 730.544 5746.85 742.685ZM3858.77 554.041C3858.76 540.06 3858.91 526.076 3858.64 512.101C3858.57 508.395 3857.18 504.715 3856.25 500.341C3848.02 500.341 3840.7 500.001 3833.43 500.438C3826.41 500.861 3818.82 498.239 3811.43 504.063C3811.43 510.28 3811.43 516.881 3811.43 523.481C3811.43 569.417 3811.44 615.354 3811.41 661.29C3811.4 667.278 3811.52 673.298 3810.98 679.249C3808.66 704.91 3793.05 722.521 3767.92 727.526C3754.76 730.148 3741.32 730.395 3728.19 727.679C3705.28 722.937 3689.85 709.713 3685.41 685.963C3683.96 678.183 3683.52 670.12 3683.49 662.184C3683.32 614.251 3683.48 566.317 3683.31 518.384C3683.3 512.677 3685.21 506.362 3679.71 500.872C3665.87 500.649 3651.52 498.628 3636.81 502.197C3636.49 507.304 3636.04 511.213 3636.04 515.122C3635.99 565.052 3635.94 614.983 3636.1 664.913C3636.13 672.198 3636.91 679.535 3637.98 686.754C3643.37 723.069 3664.1 746.963 3697.98 759.967C3720.26 768.523 3743.49 769.965 3766.82 767.094C3788.2 764.463 3808.36 757.682 3825.34 743.639C3847.84 725.034 3858.43 700.695 3858.66 671.866C3858.97 633.921 3858.76 595.972 3858.77 554.041ZM3263.07 767.182C3274.38 767.378 3285.75 768.41 3296.98 767.599C3321.62 765.821 3343.7 757.315 3361.4 739.442C3391.26 709.303 3393.37 649.883 3338.96 627.812C3327.28 623.074 3315.08 619.583 3303.01 615.872C3290.3 611.964 3277.32 608.867 3264.72 604.659C3257.86 602.369 3250.98 599.302 3245.07 595.199C3229.48 584.38 3226.95 564.343 3238.69 549.615C3244.79 541.966 3253 537.291 3262.47 536.213C3271.65 535.168 3281.13 534.891 3290.28 535.963C3304.97 537.682 3316.38 545.321 3323.52 558.641C3325.36 562.067 3327.13 565.527 3329.02 569.136C3343.72 569.136 3357.68 569.205 3371.64 569.051C3373.44 569.031 3375.22 567.85 3378.12 566.807C3375.9 544.863 3365.82 528.012 3348.09 515.431C3333 504.73 3315.86 499.652 3297.78 497.73C3269.32 494.703 3241.71 497.985 3216.91 513.252C3192.59 528.227 3181.95 550.944 3183.87 579.25C3185.75 606.943 3201.98 624.257 3226.44 634.574C3236.2 638.694 3246.57 641.456 3256.78 644.425C3270.83 648.51 3285.18 651.641 3299.03 656.282C3307.1 658.986 3315.16 662.883 3321.96 667.935C3334.91 677.543 3337.85 692.533 3331.18 707.231C3326.47 717.613 3318.16 724.024 3307.69 727.491C3293.48 732.199 3279.07 732.891 3264.45 728.646C3251.45 724.872 3242.18 717.073 3236.54 704.892C3234.66 700.831 3233.12 696.613 3231.61 692.913C3215.23 692.913 3200.08 692.913 3185.37 692.913C3184.45 695.004 3183.55 696.153 3183.51 697.328C3183.43 699.967 3183.47 702.683 3184.01 705.256C3188.81 728.501 3202.92 744.84 3223.73 754.81C3234.99 760.204 3247.6 762.78 3263.07 767.182ZM4295.62 745.198C4295.62 725.879 4296.07 706.545 4295.45 687.245C4295.08 675.51 4297.77 665.338 4303.61 655.072C4329.6 609.344 4355.05 563.304 4380.46 517.248C4383.11 512.446 4388.55 507.985 4384.96 500.767C4369.16 500.601 4353.3 499.029 4338.25 501.655C4337.16 502.997 4336.63 503.458 4336.33 504.038C4317 541.996 4297.69 579.966 4278.34 617.918C4277.44 619.687 4276.24 621.313 4275.11 622.953C4274.74 623.486 4274.19 623.951 4273.62 624.263C4273.16 624.514 4272.55 624.486 4270.88 624.783C4268.74 621.286 4266.11 617.545 4264.06 613.51C4247.44 580.882 4230.97 548.176 4214.34 515.553C4211.69 510.35 4208.46 505.443 4205.46 500.341C4196.41 500.341 4188.43 500.182 4180.46 500.387C4172.81 500.584 4164.98 499.376 4155.93 501.892C4158.57 507.311 4160.36 511.469 4162.55 515.404C4188.16 561.352 4213.57 607.414 4239.66 653.082C4245.86 663.935 4248.85 674.686 4248.47 687.112C4247.86 707.079 4248.25 727.078 4248.34 747.063C4248.36 752.302 4248.82 757.539 4249.07 762.544C4264.53 766.381 4279.64 766.384 4294.97 762.587C4295.18 758.173 4295.4 753.568 4295.62 745.198ZM3491.09 765.236C3503.62 764.992 3516.26 766.676 3530.37 763.443C3530.44 738.011 3530.4 712.828 3530.4 687.646C3530.41 662.987 3530.2 638.326 3530.46 613.671C3530.73 588.531 3529.28 563.338 3531.49 537.07C3536.87 536.716 3541.36 536.195 3545.85 536.165C3561.85 536.055 3577.84 536.236 3593.83 536.016C3597.55 535.965 3601.25 534.765 3605.25 534.041C3605.93 522.475 3607.46 512.064 3604 501.48C3600.7 501.044 3598.13 500.411 3595.56 500.409C3536.24 500.356 3476.93 500.344 3417.62 500.45C3414.5 500.456 3411.38 501.563 3408.06 502.196C3406.64 513.563 3406.42 523.916 3408.25 535.281C3413.82 535.599 3418.33 536.054 3422.85 536.081C3438.84 536.178 3454.84 536.012 3470.83 536.219C3474.58 536.267 3478.31 537.388 3483.05 538.184C3483.05 546.394 3483.05 553.656 3483.05 560.918C3483.05 621.564 3483.03 682.211 3483.08 742.857C3483.08 748.833 3483.21 754.833 3483.82 760.765C3483.97 762.201 3486.28 763.413 3491.09 765.236Z" fill="#1076BC"/>
<path d="M382.131 846.055C423.765 850.957 463.613 852.229 503.285 844.356C583.223 828.491 639.24 783.118 670.785 707.924C686.453 670.579 692.536 631.185 694.355 591.005C694.746 582.355 694.648 573.679 694.649 565.016C694.666 444.376 694.671 323.736 694.638 203.096C694.636 195.864 694.299 188.631 694.106 180.912C686.571 177.136 679.176 178.44 672.104 178.432C587.456 178.335 502.808 178.371 418.16 178.366C412.162 178.365 406.156 178.481 400.169 178.207C397.631 178.091 395.132 177.106 392.861 176.573C390.564 159.893 389.599 63.5795 391.19 12.2741C391.288 9.1161 391.939 5.97548 392.401 2.28895C395.883 1.75892 398.416 1.03651 400.95 1.03578C560.822 0.98231 720.694 0.987437 881.789 0.987437C882.606 5.70887 883.463 9.37708 883.818 13.0929C884.135 16.3956 883.901 19.7516 883.901 23.0841C883.901 209.043 883.768 395.002 883.975 580.96C884.041 640.126 875.99 697.911 855.836 753.624C804.861 894.528 705.595 981.501 560.198 1015.91C499.286 1030.32 437.531 1031.49 375.427 1024.97C321.939 1019.36 270.536 1006.22 222.102 982.804C125.98 936.335 61.5214 861.723 26.8655 760.983C9.35423 710.08 2.35908 657.437 0.510292 603.922C0.418587 601.266 0.527199 598.585 0.812477 595.944C0.947853 594.692 1.72037 593.508 2.7009 591.046C5.0752 590.556 8.16852 589.367 11.2641 589.361C66.5848 589.254 121.906 589.276 177.227 589.339C179.803 589.342 182.378 589.986 185.958 590.466C186.531 595.265 187.303 599.681 187.55 604.126C189.366 636.789 192.799 669.158 202.577 700.612C224.206 770.187 269.386 816.018 339.507 836.526C352.883 840.439 366.751 842.669 382.131 846.055Z" fill="#1176BD"/>
<path d="M2219.31 819.699C2193 748.139 2186.67 675.844 2193.81 601.89C2197.16 567.216 2204.11 533.372 2216.4 500.846C2255.05 398.536 2327.76 332.419 2431.81 300.274C2484.05 284.133 2537.79 279.322 2591.89 284.605C2654.55 290.725 2710.64 313.523 2755.95 358.866C2762.98 365.901 2768.96 373.989 2775.41 381.597C2777.89 384.515 2780.34 387.454 2784.07 391.895C2787.95 383.394 2786.45 376.076 2787.03 369.162C2787.69 361.2 2787.74 353.19 2788.27 345.214C2788.75 337.904 2789.53 330.614 2790.15 323.312C2790.75 316.184 2791.32 309.053 2791.87 302.317C2808.89 299.723 2935.46 299.321 2957.74 301.724C2958.24 305.13 2959.03 308.855 2959.26 312.615C2959.53 317.262 2959.33 321.938 2959.33 326.602C2959.34 545.123 2959.34 763.643 2959.32 982.164C2959.31 990.041 2959.03 997.917 2958.9 1004.41C2957.2 1006.18 2956.8 1006.76 2956.26 1007.11C2955.73 1007.45 2955.06 1007.72 2954.45 1007.73C2905.16 1007.92 2855.87 1008.09 2806.58 1008.21C2803.31 1008.22 2800.04 1007.87 2795.63 1007.62C2790.89 991.917 2791.76 975.927 2790.31 960.254C2788.91 945.106 2787.4 929.968 2785.85 913.955C2783.62 914.814 2781.22 914.957 2780.49 916.133C2749.13 967.127 2701.36 995.99 2646.37 1014.41C2605.56 1028.09 2563.6 1033.06 2520.35 1029.43C2482.95 1026.28 2446.34 1020.19 2411.08 1007.43C2322.32 975.296 2259.51 915.626 2222.88 828.54C2221.84 826.085 2220.83 823.623 2219.31 819.699ZM2669.26 459.583C2623.45 438.097 2575.35 434.256 2526.69 444.895C2452.55 461.103 2401.42 504.93 2378.02 578.033C2360.84 631.742 2361.82 685.89 2381.16 738.92C2402.3 796.877 2442.88 835.837 2500.98 856.671C2530.36 867.205 2560.7 870.279 2591.54 868.27C2668.44 863.258 2725.51 827.15 2759.52 757.534C2785.06 705.251 2789.51 650.194 2775.09 593.908C2759.96 534.817 2727.09 489.095 2669.26 459.583Z" fill="#1176BC"/>
<path d="M1424.21 853.781C1461.38 843.209 1494.25 827.759 1521.14 803.721C1523.38 803.721 1524.07 803.599 1524.69 803.755C1525.32 803.912 1525.99 804.225 1526.45 804.671C1544.6 822.317 1562.83 839.873 1580.82 857.683C1598.33 875.021 1615.58 892.619 1632.9 910.143C1633.27 910.514 1633.13 911.382 1633.42 913.23C1628.97 919.687 1622.28 925.114 1615.79 930.671C1572.5 967.743 1522.4 992.009 1468.01 1007.49C1408.53 1024.41 1347.97 1030.7 1286.09 1025.17C1243.33 1021.36 1201.59 1013.62 1161.66 997.908C1057.38 956.876 989.063 882.436 958.34 774.637C935.183 693.386 933.852 611.321 957.938 530.131C994.913 405.493 1078.34 327.379 1202.84 292.576C1246.81 280.282 1291.93 277.276 1337.5 278.755C1372.3 279.884 1406.62 284.021 1440.14 293.305C1554.22 324.905 1627.91 397.852 1661.02 511.386C1678.98 572.933 1681.7 635.995 1677.27 699.561C1676.91 704.71 1675.43 709.781 1674.23 716.171C1643.05 716.33 1612.47 716.228 1581.9 716.246C1551.24 716.264 1520.58 716.25 1489.92 716.25C1459.27 716.25 1428.61 716.25 1397.95 716.25C1367.96 716.25 1337.97 716.25 1307.98 716.25C1277.32 716.25 1246.66 716.193 1216 716.266C1185.48 716.338 1154.95 715.919 1124.31 716.576C1122.86 727.734 1126.4 736.514 1129.17 745.281C1140.66 781.694 1163.25 809.784 1194.89 830.642C1223.8 849.7 1256.08 859.334 1290.13 864.345C1335.15 870.971 1379.12 865.849 1424.21 853.781ZM1135.24 571.574C1252.4 571.585 1369.55 571.625 1486.71 571.532C1493.09 571.527 1499.88 573.246 1505.9 569.238C1506.03 566.881 1506.54 564.846 1506.19 562.965C1496.05 507.307 1464.67 469.024 1411.94 448.457C1390.06 439.922 1367.16 436.272 1343.81 434.412C1307.42 431.515 1271.93 435.569 1237.82 448.333C1184.86 468.148 1148.55 504.863 1129.69 558.413C1128.62 561.464 1127.89 564.778 1127.86 567.979C1127.84 569.105 1130.38 570.261 1135.24 571.574Z" fill="#1176BC"/>
<path d="M2184.42 969.356C2186.35 975.789 2187.77 980.808 2189.39 986.595C2185.12 988.634 2181.72 990.57 2178.1 991.938C2139.83 1006.41 2100.39 1015.13 2059.38 1016.72C2030.02 1017.85 2000.82 1018.01 1971.81 1012.33C1889.5 996.219 1834.14 949.031 1807.02 869.453C1795.54 835.743 1790.81 800.883 1790.83 765.304C1790.9 669.357 1790.85 573.411 1790.85 477.464C1790.85 470.166 1790.85 462.869 1790.85 454.386C1785.73 453.602 1781.37 452.373 1777 452.35C1745.02 452.183 1713.04 452.256 1681.05 452.254C1674.5 452.253 1667.94 452.254 1662.71 452.254C1660.91 450.378 1660.37 449.948 1660 449.404C1659.65 448.886 1659.27 448.249 1659.26 447.663C1659.04 404.367 1658.83 361.071 1658.7 317.774C1658.68 313.151 1659.12 308.526 1659.41 302.769C1664.1 302.134 1668.52 301.041 1672.94 301.02C1704.92 300.87 1736.9 300.973 1768.89 300.905C1775.42 300.891 1781.95 300.495 1789.35 300.245C1792.3 279.513 1790.42 259.641 1790.77 239.873C1791.11 220.556 1790.85 201.228 1790.85 181.906C1790.85 161.958 1790.85 142.01 1790.85 121.011C1795.72 119.597 1799.89 117.705 1804.22 117.231C1855.19 111.659 1906.19 106.287 1957.18 100.928C1959.12 100.725 1961.12 101.183 1962.94 101.322C1968.08 105.61 1966.22 111.321 1966.23 116.357C1966.37 170.327 1966.32 224.297 1966.32 278.267C1966.32 284.848 1966.32 291.428 1966.32 297.075C1972.63 302.6 1978.87 300.829 1984.6 300.846C2035.9 300.996 2087.21 300.935 2138.51 300.935C2145.14 300.935 2151.77 300.935 2159.16 300.935C2160.19 304.699 2161.74 307.729 2161.75 310.764C2161.9 354.739 2161.87 398.714 2161.79 442.689C2161.78 445.214 2160.94 447.737 2160.35 451.011C2138.69 453.663 2117.48 451.862 2096.35 452.18C2074.37 452.512 2052.37 452.208 2030.39 452.267C2009.2 452.324 1988 451.967 1966.15 452.601C1965.47 458.778 1964.55 463.266 1964.55 467.755C1964.47 563.036 1964.45 658.316 1964.57 753.596C1964.59 762.233 1965.34 770.908 1966.34 779.496C1972.16 829.187 2004.8 858.714 2054.77 859.247C2077.68 859.492 2099.64 854.12 2121.04 846.25C2127.21 843.981 2133.35 841.63 2140.41 838.973C2150.18 860.284 2155.6 882.186 2162.84 903.409C2170.15 924.82 2176.9 946.424 2184.42 969.356Z" fill="#1176BD"/>
<path d="M5974.88 1152.12C5974.93 1139.48 5975.44 1128.79 5974.9 1118.16C5973.99 1100.53 5988.85 1083.58 6008.64 1083.72C6049.29 1084.01 6089.94 1083.47 6130.58 1083.92C6150.84 1084.15 6162.24 1095.6 6164.38 1115.91C6164.72 1119.22 6164.86 1122.56 6164.84 1125.89C6164.67 1161.87 6164.45 1197.85 6164.23 1233.83C6164.21 1236.49 6164.08 1239.15 6164.07 1241.82C6164 1259.14 6149.45 1273.14 6131.79 1273.02C6090.47 1272.75 6049.16 1273.29 6007.85 1272.78C5987.84 1272.53 5975.55 1260.07 5975.14 1240.05C5974.56 1211.41 5974.91 1182.75 5974.88 1152.12ZM6087.56 1171.98C6095.11 1164.49 6102.55 1156.88 6110.29 1149.58C6112.32 1147.66 6115.26 1146.71 6118.93 1144.68C6119.36 1149.81 6119.37 1153.13 6119.96 1156.34C6121.46 1164.63 6123.17 1165.2 6134.9 1161.08C6135.09 1153.58 6135.56 1145.67 6135.43 1137.76C6135.3 1129.99 6136.7 1121.97 6133.1 1113.48C6126.89 1113.08 6121.06 1112.44 6115.23 1112.4C6106.6 1112.33 6097.94 1112.39 6089.35 1113.07C6087.31 1113.23 6084.27 1115.78 6083.83 1117.72C6083.2 1120.53 6084.51 1123.78 6085.04 1127.1C6089.29 1127.54 6092.59 1127.7 6095.81 1128.26C6098.71 1128.77 6102.46 1126.68 6104.91 1131.68C6092.5 1144.8 6079.93 1158.08 6067.37 1171.37C6047.01 1173.36 6026.41 1169.9 6006.44 1173.32C6002.12 1190.23 6002.4 1229.04 6006.68 1242.55C6025.63 1245.44 6059.13 1245.04 6074.86 1241.43C6076.87 1220.82 6074.56 1199.6 6076.22 1178.61C6079.4 1176.93 6082.28 1175.41 6087.56 1171.98Z" fill="#1176BD"/>
<path d="M4949.97 1237.9C4945.14 1248.61 4939.41 1256.79 4930.84 1262.41C4915.23 1272.65 4898.62 1274.32 4881.45 1266.65C4877.25 1264.78 4873.52 1261.86 4868.62 1258.83C4867.31 1261.84 4866.15 1264.51 4864.62 1268.01C4853.93 1269.75 4842.85 1268.99 4832.49 1268.56C4831.26 1267.28 4830.69 1266.86 4830.37 1266.3C4830.07 1265.76 4829.91 1265.07 4829.91 1264.45C4829.83 1217.17 4829.76 1169.89 4829.75 1122.61C4829.75 1120.72 4830.33 1118.84 4830.86 1115.66C4841.99 1114.54 4853.03 1114.7 4865.29 1115.71C4867.33 1123.75 4866.25 1131.62 4866.43 1139.34C4866.61 1146.65 4866.47 1153.96 4866.47 1163.13C4870.26 1161.42 4872.95 1160.47 4875.4 1159.07C4906.85 1141.09 4941.08 1154.71 4951.66 1189.34C4956.51 1205.21 4955.64 1220.86 4949.97 1237.9ZM4916.44 1204.09C4914.59 1199.94 4913.54 1195.12 4910.75 1191.74C4900.44 1179.23 4881.02 1180.1 4871.37 1193.06C4864.2 1202.69 4864.55 1220.85 4872.09 1230.17C4883.96 1244.83 4907.18 1241.89 4914.34 1224.38C4916.5 1219.11 4916.27 1212.86 4916.44 1204.09Z" fill="#0D1010"/>
<path d="M5444.15 1227.71C5444.15 1242.16 5444.15 1254.66 5444.15 1268.32C5431.7 1269.26 5420.61 1269.24 5409.41 1268.34C5408.04 1265.11 5406.79 1262.18 5405.32 1258.72C5401.86 1260.91 5398.65 1263.24 5395.17 1265.08C5371.33 1277.73 5342.73 1270.63 5328.98 1247.42C5315.02 1223.84 5314.93 1199.07 5328.45 1175.27C5341.28 1152.7 5369.4 1144.73 5392.77 1155.87C5396.84 1157.81 5400.61 1160.36 5404.13 1162.4C5405.39 1162.05 5406.23 1162.05 5406.62 1161.64C5407 1161.23 5407.04 1160.4 5407.04 1159.75C5407.06 1145.82 5407.05 1131.88 5407.05 1117.15C5419.38 1113.35 5430.93 1115.44 5441.28 1115.34C5442.89 1117.06 5443.5 1117.47 5443.76 1118.04C5444.02 1118.62 5443.97 1119.35 5443.97 1120.01C5444.04 1155.26 5444.09 1190.52 5444.15 1227.71ZM5404.99 1197.39C5403.5 1195.2 5402.25 1192.79 5400.48 1190.85C5392.82 1182.5 5383.14 1181.25 5373.04 1184.56C5363.22 1187.78 5358.38 1195.78 5357.12 1205.63C5356.55 1210.1 5356.89 1214.93 5357.94 1219.32C5361.09 1232.48 5371.54 1240.38 5383.78 1239.54C5396 1238.69 5405.83 1229.21 5407.04 1216.27C5407.52 1211.06 5406.54 1205.71 5404.99 1197.39Z" fill="#0D1010"/>
<path d="M5618.33 1181.2C5623.99 1193.8 5625.12 1205.46 5623.01 1218.93C5614.58 1220.83 5606.06 1219.76 5597.68 1219.92C5588.36 1220.1 5579.04 1219.96 5569.72 1219.96C5561.17 1219.96 5552.62 1219.96 5544.02 1219.96C5542.13 1229.92 5546.8 1235.35 5553.61 1238.82C5560.42 1242.29 5569.19 1243.41 5574.57 1238.43C5588.54 1225.48 5603.99 1231.56 5619.54 1231.21C5615.34 1247.97 5608.65 1257.15 5595.08 1263.99C5574.65 1274.29 5553.88 1274.1 5533.73 1263.53C5512.29 1252.27 5502.48 1228.81 5506.15 1200.1C5509.13 1176.82 5524.06 1158.61 5546.55 1153.34C5568.54 1148.19 5600.36 1149.23 5618.33 1181.2ZM5551.16 1199.64C5557.09 1199.65 5563.02 1199.78 5568.95 1199.62C5574.54 1199.46 5580.36 1200.48 5585.47 1198.47C5586.12 1191.02 5582.79 1186.86 5578.11 1184.3C5574.21 1182.16 5569.59 1180.59 5565.18 1180.29C5555.13 1179.61 5547.52 1184.88 5543.9 1194.43C5542.81 1197.32 5544.65 1199.24 5551.16 1199.64Z" fill="#0D1010"/>
<path d="M5119.21 1171.89C5131.75 1187.52 5133.86 1204.32 5131.44 1221.95C5130.64 1227.76 5128.9 1233.68 5126.36 1238.96C5114.72 1263.17 5085.91 1275.87 5057.22 1269.9C5028.5 1263.92 5011.78 1245.06 5009.6 1216.58C5006.12 1171.11 5040.85 1150.38 5070.12 1151.16C5088.98 1151.67 5105.3 1156.67 5119.21 1171.89ZM5046.99 1216.65C5047.87 1219.81 5048.23 1223.25 5049.73 1226.09C5055.18 1236.36 5063.96 1241.03 5073.96 1239.49C5083.72 1237.99 5092.44 1230.32 5094.07 1220.05C5095.09 1213.65 5095.03 1206.71 5093.68 1200.39C5091.46 1190.02 5082.39 1183.32 5072.22 1182.83C5060.76 1182.27 5051.59 1188.35 5048.21 1199.6C5046.91 1203.94 5047.2 1208.75 5046.99 1216.65Z" fill="#0D1010"/>
<path d="M5860.05 1151.41C5866.94 1151.61 5872.32 1151.42 5877.55 1152.2C5886.98 1153.6 5895.28 1157.63 5902.09 1164.47C5908.9 1171.3 5912.77 1179.39 5913.68 1190.26C5907.86 1190.67 5902.79 1191.16 5897.7 1191.35C5893.06 1191.53 5888.4 1191.39 5883.01 1191.39C5881.03 1189.05 5879.37 1185.99 5876.81 1184.31C5873.09 1181.87 5868.88 1179.56 5864.58 1178.74C5858.01 1177.49 5852.53 1180.57 5851.37 1184.77C5850.13 1189.27 5853.36 1193.4 5860.55 1195.68C5866.25 1197.48 5872.2 1198.49 5877.88 1200.32C5884.81 1202.57 5892.04 1204.49 5898.34 1207.99C5919.29 1219.63 5920.82 1246.64 5901.65 1261.03C5899.02 1263.01 5896.1 1264.78 5893.06 1266.01C5872.74 1274.23 5852.67 1273.25 5833.44 1262.91C5828.32 1260.16 5823.91 1255.69 5819.95 1251.31C5815.51 1246.41 5812.94 1240.36 5813.06 1232.11C5823.49 1229.93 5834.03 1231.52 5845.37 1230.92C5847.68 1233.45 5850.07 1236.51 5852.91 1239.1C5859.57 1245.15 5867.32 1245.59 5875.12 1241.95C5877.05 1241.05 5878.84 1237.87 5878.95 1235.65C5879.07 1233.47 5877.53 1230.06 5875.72 1229.15C5871.04 1226.77 5865.86 1225.34 5860.81 1223.75C5852.58 1221.16 5844.11 1219.23 5836.07 1216.16C5823.88 1211.49 5816.25 1202.53 5815.73 1189.19C5815.23 1176.26 5820.93 1166.12 5832.01 1159.14C5840.11 1154.04 5848.94 1151.55 5860.05 1151.41Z" fill="#0D1010"/>
<path d="M5709.83 1152.45C5714.76 1152.86 5717.98 1153.27 5721.06 1153.66C5721.97 1157.6 5722.7 1160.79 5723.57 1164.53C5725.28 1164.17 5727.31 1164.28 5728.66 1163.38C5743.57 1153.38 5743.55 1153.34 5757.98 1152.72C5760.43 1163.82 5758.43 1175.05 5759.44 1187.44C5753.72 1188.42 5748.75 1189.23 5743.79 1190.13C5727.78 1193.01 5723.16 1197.86 5722.62 1213.82C5722.18 1227.11 5722.55 1240.42 5722.44 1253.73C5722.41 1258.24 5722.03 1262.75 5721.77 1268.06C5709.83 1268.06 5698.75 1268.06 5687.74 1268.06C5685.2 1252.52 5684.77 1175.7 5687.14 1153.79C5693.74 1151.15 5701.06 1153.05 5709.83 1152.45Z" fill="#0D1010"/>
<path d="M5193.68 1215.93C5193.69 1194.1 5193.69 1174.25 5193.7 1153.78C5206.13 1151.57 5217.12 1152.37 5228.61 1152.99C5229.84 1157.33 5230.86 1160.95 5231.98 1164.93C5233.83 1164.27 5235.85 1163.96 5237.39 1162.92C5250.58 1153.99 5250.55 1153.95 5265.63 1152.28C5268.74 1163.73 5266.77 1175.38 5266.76 1187.76C5262.59 1188.46 5258.81 1189.15 5255.01 1189.73C5234.41 1192.85 5230.84 1196.93 5230.51 1218.49C5230.33 1229.78 5230.47 1241.08 5230.47 1252.37C5230.47 1257 5230.47 1261.62 5230.47 1266.86C5218.35 1270.55 5206.79 1268.47 5196.45 1268.66C5194.85 1266.72 5194.08 1266.23 5194.08 1265.73C5193.9 1249.79 5193.79 1233.85 5193.68 1215.93Z" fill="#0D1010"/>
<path d="M4604.79 1154.8C4620.41 1156.03 4630.58 1164.44 4639.84 1173.27C4644.84 1171.47 4644.06 1167.79 4644.09 1164.69C4644.23 1150.07 4644.14 1135.44 4644.29 1120.81C4644.35 1115.81 4646.1 1115.11 4654.64 1116.61C4654.64 1166.88 4654.64 1217.22 4654.64 1268.34C4651.49 1268.51 4649.03 1268.64 4645.43 1268.83C4644.55 1262.67 4643.76 1257.1 4642.7 1249.71C4638.54 1253.42 4635.63 1255.94 4632.8 1258.55C4605.98 1283.27 4549.43 1273.85 4541.56 1226C4540.02 1216.64 4540.16 1207.64 4541.7 1198.32C4545.71 1174.1 4566 1155.78 4589.28 1154.66C4593.91 1154.43 4598.55 1154.61 4604.79 1154.8ZM4622.5 1255.19C4638.85 1244.88 4644.34 1229.34 4644.22 1210.87C4644.02 1182.62 4622.82 1160.94 4592.16 1163.84C4569.63 1165.97 4553.88 1181.87 4551.6 1205.74C4548.99 1233.19 4561.98 1254.52 4584.68 1260.05C4585.32 1260.21 4585.99 1260.27 4586.64 1260.42C4598.08 1263.05 4609.06 1261.82 4622.5 1255.19Z" fill="#2D2F2F"/>
<path d="M3691.09 1158.99C3691.53 1165.17 3691.97 1169.5 3692.7 1176.63C3708.18 1159.4 3725.08 1152.4 3745.63 1154.47C3759.47 1155.87 3771.32 1160.89 3780.73 1171.17C3800.85 1193.14 3800.33 1233.88 3779.6 1255.25C3767.76 1267.47 3752.89 1272.18 3736.21 1271.65C3719.38 1271.11 3705.8 1263.52 3695.58 1251.53C3693.69 1251.65 3692.47 1251.6 3692.45 1251.74C3691.63 1256.83 3690.92 1261.94 3690.2 1267.05C3681.33 1269.1 3679.97 1268.52 3679.95 1261.55C3679.87 1213.71 3679.91 1165.88 3679.91 1117.03C3682.98 1116.28 3685.85 1115.58 3688.15 1115.02C3689.43 1116.45 3690.25 1116.93 3690.26 1117.44C3690.59 1130.67 3690.83 1143.9 3691.09 1158.99ZM3781.87 1230.57C3782.55 1223.97 3783.89 1217.35 3783.8 1210.76C3783.36 1179.67 3763.08 1161.38 3732.36 1163.92C3710.28 1165.75 3693.77 1182.65 3691.42 1205.82C3688.81 1231.62 3701.52 1253.32 3722.92 1259.59C3723.56 1259.78 3724.23 1259.86 3724.87 1260.03C3746.78 1265.78 3772.88 1256.84 3781.87 1230.57Z" fill="#2D2F2F"/>
<path d="M3427.04 1216.83C3420.52 1216.92 3415.99 1217.01 3412.21 1217.08C3406.8 1224.14 3410.52 1229.86 3412.2 1235.14C3414.67 1242.88 3419.93 1249.05 3426.65 1253.74C3447.31 1268.18 3483.87 1263.68 3493.72 1238.87C3496.09 1232.89 3498.81 1229.69 3506.16 1233.23C3506.34 1242.34 3501.1 1249.11 3495.37 1255.37C3472.35 1280.51 3417.43 1278.24 3402.05 1238.06C3395.64 1221.29 3395.41 1204.15 3401.91 1187.4C3409.28 1168.39 3423.55 1157.38 3443.8 1155.14C3451.64 1154.27 3459.84 1154.35 3467.6 1155.64C3490.28 1159.41 3506.41 1178.24 3507.69 1201.32C3507.84 1203.97 3507.85 1206.65 3507.68 1209.3C3507.55 1211.22 3507.01 1213.12 3506.69 1214.87C3505.25 1215.54 3504.08 1216.55 3502.9 1216.56C3478.28 1216.71 3453.66 1216.76 3427.04 1216.83ZM3434.16 1167.36C3417.53 1175.17 3409.12 1187.92 3409.61 1206.5C3430.75 1208.68 3481.15 1208.33 3495.7 1205.99C3496.57 1183.08 3484.26 1166.88 3462.71 1164.4C3454.32 1163.43 3445.6 1165.31 3434.16 1167.36Z" fill="#2D2F2F"/>
<path d="M3958.73 1172.62C3968.58 1186.2 3972.32 1199.76 3969.09 1215.54C3952.95 1218.13 3937.05 1216.47 3921.24 1216.76C3905.39 1217.05 3889.53 1216.83 3875.06 1216.83C3869.78 1221.09 3871.08 1225.31 3872.05 1228.91C3877.17 1247.99 3890.2 1258.96 3910.26 1261.57C3930.1 1264.16 3945.21 1256.76 3955.3 1239.52C3956.63 1237.24 3957.49 1234.31 3959.44 1232.89C3961.17 1231.62 3964.12 1232.02 3967.84 1231.5C3967.51 1235.26 3967.87 1237.93 3967 1240.11C3959.98 1257.75 3946.28 1267.01 3928.14 1270.61C3894.24 1277.33 3865.19 1257.3 3859.79 1223.26C3857.77 1210.52 3859.13 1197.96 3864.23 1186.14C3871.59 1169.09 3884.52 1158.41 3903.02 1155.4C3923.73 1152.03 3942.79 1155.02 3958.73 1172.62ZM3941.47 1170.41C3930.88 1163.59 3919.17 1162.61 3907.1 1164.11C3896.87 1165.39 3888.14 1169.99 3881.55 1177.9C3874.69 1186.13 3869.67 1195.2 3871.85 1206.56C3898.75 1209.27 3945.57 1208.48 3958.72 1205.04C3959.73 1191.5 3954.29 1180.83 3941.47 1170.41Z" fill="#2D2F2F"/>
<path d="M4300.24 1228.51C4293.51 1262.18 4256.54 1279.5 4224.23 1268.28C4222.36 1267.63 4220.49 1266.93 4218.69 1266.1C4191.72 1253.65 4184.46 1225.29 4187.73 1202.72C4191.64 1175.68 4209.84 1157.95 4236.09 1154.79C4246.14 1153.59 4256.13 1153.91 4265.63 1157.27C4288.97 1165.55 4299.97 1183.38 4302.05 1207.16C4302.61 1213.65 4301.13 1220.32 4300.24 1228.51ZM4258.28 1259.85C4260.77 1258.93 4263.3 1258.14 4265.73 1257.09C4297.55 1243.31 4296.94 1195.8 4279.38 1178.31C4274.8 1173.75 4269.12 1169.5 4263.14 1167.27C4228.8 1154.46 4199.42 1176.72 4198.83 1207.38C4198.73 1212.68 4198.64 1218.06 4199.32 1223.3C4201.84 1243.01 4215.46 1257.36 4235.27 1260.51C4241.68 1261.53 4248.4 1260.53 4258.28 1259.85Z" fill="#2D2F2F"/>
<path d="M4371.89 1235.54C4371.9 1210.33 4371.93 1187.05 4371.9 1163.77C4371.89 1158.17 4373.56 1154.63 4381.67 1156.53C4382.48 1160.1 4383.45 1164.36 4384.49 1168.98C4386.3 1168.23 4388.45 1167.93 4389.73 1166.72C4402.31 1154.9 4417.19 1150.99 4433.91 1153.97C4457.04 1158.09 4470.3 1172.66 4471.36 1196.27C4472.16 1214.19 4471.66 1232.18 4471.63 1250.14C4471.62 1256 4471.26 1261.86 4471.04 1268.26C4467.72 1268.26 4465.31 1268.26 4461.46 1268.26C4461.46 1249.74 4461.66 1231.88 4461.37 1214.02C4461.24 1206.09 4460.88 1198.02 4459.28 1190.28C4455.92 1174.05 4445.31 1165.05 4429.03 1163.34C4402.72 1160.56 4385.42 1174.73 4383.55 1201.44C4382.67 1214.02 4383.17 1226.71 4383.1 1239.34C4383.05 1248.56 4383.09 1257.77 4383.09 1265.85C4379.08 1269.84 4376.2 1269.36 4371.89 1265.78C4371.89 1257.16 4371.89 1247.32 4371.89 1235.54Z" fill="#2D2F2F"/>
<path d="M4107.02 1217.04C4094.8 1247.46 4083.09 1276.42 4071.34 1305.37C4069.34 1310.29 4067.57 1315.38 4064.85 1319.88C4063.8 1321.61 4060.24 1322.9 4058.07 1322.6C4054.96 1322.17 4054.63 1318.89 4055.65 1316.31C4061.74 1300.85 4068 1285.46 4074.5 1269.3C4058.86 1232.45 4043.07 1195.21 4026.92 1157.13C4030.52 1156.35 4032.96 1155.81 4036.52 1155.04C4038.74 1159.17 4041.19 1162.96 4042.93 1167.05C4053.63 1192.12 4064.12 1217.28 4074.8 1242.35C4076.3 1245.88 4078.49 1249.11 4081.34 1254.24C4087.51 1238.89 4092.99 1225.39 4098.35 1211.85C4105.21 1194.55 4111.93 1177.19 4118.82 1159.9C4120.69 1155.2 4124.29 1154.69 4129.69 1157.12C4128.5 1167.36 4122.84 1176.33 4119.36 1185.96C4115.75 1195.95 4111.48 1205.71 4107.02 1217.04Z" fill="#2D2F2F"/>
<path d="M3307.53 1239.11C3307.53 1249.57 3307.53 1258.17 3307.53 1267.94C3303.88 1268.14 3301.02 1268.31 3296.78 1268.55C3296.78 1234.23 3296.78 1201.14 3296.78 1167.34C3290.31 1165.64 3284.88 1164.21 3279.15 1162.7C3280.58 1151.4 3290.51 1157.88 3295.47 1153.08C3296.15 1148.7 3296.78 1143.45 3297.81 1138.28C3301.21 1121.21 3314.9 1111.17 3332.64 1112.92C3333.95 1113.05 3335.88 1115.51 3335.98 1116.98C3336.08 1118.53 3334.68 1120.72 3333.28 1121.68C3331.77 1122.73 3329.49 1122.63 3327.58 1123.13C3309.66 1127.79 3306.55 1133.05 3309.81 1154.68C3316.66 1154.93 3323.8 1155.14 3330.93 1155.49C3333.68 1155.63 3336.78 1156.59 3336.41 1159.71C3336.19 1161.55 3333.52 1164.39 3331.78 1164.53C3324.58 1165.07 3317.31 1164.75 3309.96 1164.75C3305.51 1177.58 3308.05 1189.59 3307.63 1201.35C3307.19 1213.3 3307.53 1225.28 3307.53 1239.11Z" fill="#2D2F2F"/>
<path d="M3087.56 1254.95C3089.98 1261.4 3094.27 1260.64 3098.15 1260.69C3111.48 1260.84 3124.81 1260.77 3138.13 1261.04C3140.97 1261.1 3142.93 1262.83 3141.91 1266.23C3128.16 1269.7 3103.49 1270.16 3079.61 1267.39C3077.27 1249.98 3077.19 1140.95 3079.54 1124.11C3081.39 1123.92 3083.31 1123.73 3085.1 1123.56C3085.92 1124.89 3087.17 1125.98 3087.17 1127.06C3087.33 1169.05 3087.38 1211.05 3087.56 1254.95Z" fill="#0D1010"/>
<path d="M3215.42 1255.49C3214.88 1260.62 3214.52 1263.84 3213.67 1266.92C3213.47 1267.62 3211.56 1268.27 3210.47 1268.21C3209.38 1268.14 3207.81 1267.43 3207.37 1266.55C3206.54 1264.88 3205.97 1262.88 3205.97 1261.02C3205.89 1228.45 3205.89 1195.87 3206 1163.3C3206 1161.45 3206.77 1159.46 3207.71 1157.83C3208.18 1157 3209.83 1156.42 3210.9 1156.49C3211.98 1156.55 3213.78 1157.4 3213.92 1158.16C3214.66 1161.98 3215.34 1165.89 3215.36 1169.76C3215.47 1197.68 3215.42 1225.61 3215.42 1255.49Z" fill="#0D1010"/>
<path d="M3203.2 1119.09C3205.91 1116.79 3208.12 1115 3210.47 1114.81C3214.65 1114.47 3217.91 1116.44 3218.89 1120.99C3219.86 1125.44 3217.88 1128.52 3214.12 1130.51C3209.95 1132.71 3206.33 1130.91 3204.02 1127.64C3202.73 1125.82 3203.13 1122.79 3203.2 1119.09Z" fill="#2D2F2F"/>
<path d="M6086.36 1172.94C6082.28 1175.41 6079.4 1176.93 6076.22 1178.61C6074.57 1199.6 6076.87 1220.82 6074.86 1241.43C6059.13 1245.04 6025.63 1245.44 6006.68 1242.54C6002.4 1229.04 6002.12 1190.23 6006.44 1173.32C6026.41 1169.9 6047.01 1173.36 6067.37 1171.37C6079.93 1158.08 6092.5 1144.8 6104.91 1131.68C6102.46 1126.68 6098.71 1128.77 6095.81 1128.26C6092.59 1127.7 6089.29 1127.54 6085.04 1127.1C6084.51 1123.78 6083.2 1120.53 6083.83 1117.72C6084.27 1115.78 6087.31 1113.23 6089.35 1113.07C6097.94 1112.39 6106.6 1112.33 6115.23 1112.4C6121.06 1112.44 6126.89 1113.08 6133.11 1113.48C6136.7 1121.97 6135.3 1129.99 6135.43 1137.76C6135.56 1145.67 6135.09 1153.58 6134.9 1161.08C6123.17 1165.2 6121.46 1164.63 6119.96 1156.34C6119.37 1153.13 6119.36 1149.81 6118.93 1144.68C6115.26 1146.71 6112.32 1147.66 6110.29 1149.58C6102.56 1156.88 6095.11 1164.49 6086.36 1172.94ZM6011.64 1206.12C6011.64 1211.43 6011.52 1216.75 6011.67 1222.05C6011.81 1227.12 6012.23 1232.19 6012.58 1238.09C6032.2 1239.02 6050.42 1240.3 6069.37 1237.28C6070.74 1217.36 6071.09 1198.43 6069.23 1179.03C6059.5 1175.5 6050.14 1177.06 6041.07 1177.2C6031.46 1177.34 6021.37 1174.74 6011.65 1180.22C6011.65 1187.78 6011.65 1195.05 6011.64 1206.12Z" fill="#9EC3E2"/>
<path d="M4916.78 1205.58C4916.27 1212.86 4916.5 1219.11 4914.34 1224.38C4907.18 1241.89 4883.96 1244.83 4872.09 1230.17C4864.55 1220.85 4864.2 1202.69 4871.37 1193.06C4881.02 1180.1 4900.43 1179.23 4910.75 1191.74C4913.54 1195.12 4914.59 1199.94 4916.78 1205.58Z" fill="#FAFAFA"/>
<path d="M5549.48 1199.59C5544.65 1199.24 5542.81 1197.32 5543.9 1194.43C5547.52 1184.88 5555.12 1179.61 5565.18 1180.29C5569.59 1180.59 5574.21 1182.16 5578.11 1184.3C5582.79 1186.86 5586.12 1191.02 5585.47 1198.48C5580.36 1200.48 5574.54 1199.46 5568.95 1199.62C5563.02 1199.78 5557.09 1199.65 5549.48 1199.59Z" fill="#F6F9FC"/>
<path d="M5046.87 1215C5047.2 1208.75 5046.91 1203.94 5048.21 1199.6C5051.59 1188.35 5060.76 1182.27 5072.22 1182.83C5082.39 1183.32 5091.46 1190.02 5093.68 1200.39C5095.03 1206.71 5095.09 1213.65 5094.07 1220.05C5092.44 1230.32 5083.73 1237.99 5073.96 1239.49C5063.96 1241.03 5055.18 1236.36 5049.73 1226.09C5048.23 1223.25 5047.87 1219.81 5046.87 1215Z" fill="#FAFAFA"/>
<path d="M4621.04 1255.88C4609.06 1261.82 4598.08 1263.05 4586.64 1260.42C4585.99 1260.27 4585.32 1260.21 4584.68 1260.05C4561.98 1254.52 4548.99 1233.19 4551.6 1205.74C4553.88 1181.87 4569.63 1165.97 4592.16 1163.84C4622.82 1160.94 4644.02 1182.62 4644.22 1210.87C4644.34 1229.34 4638.85 1244.88 4621.04 1255.88Z" fill="#FAFAFA"/>
<path d="M3781.24 1232.08C3772.88 1256.84 3746.78 1265.78 3724.87 1260.03C3724.23 1259.86 3723.56 1259.78 3722.92 1259.59C3701.52 1253.32 3688.81 1231.62 3691.42 1205.82C3693.77 1182.65 3710.28 1165.74 3732.36 1163.92C3763.08 1161.38 3783.36 1179.67 3783.8 1210.76C3783.89 1217.35 3782.55 1223.96 3781.24 1232.08Z" fill="#FAFAFA"/>
<path d="M3435.59 1166.63C3445.6 1165.31 3454.32 1163.43 3462.71 1164.4C3484.26 1166.88 3496.57 1183.08 3495.7 1205.99C3481.15 1208.33 3430.75 1208.68 3409.61 1206.5C3409.12 1187.92 3417.53 1175.17 3435.59 1166.63Z" fill="#FAFAFA"/>
<path d="M3942.74 1171.33C3954.29 1180.83 3959.73 1191.5 3958.72 1205.04C3945.57 1208.48 3898.75 1209.27 3871.85 1206.56C3869.67 1195.2 3874.69 1186.13 3881.55 1177.9C3888.14 1169.99 3896.87 1165.39 3907.1 1164.11C3919.17 1162.61 3930.88 1163.59 3942.74 1171.33Z" fill="#FAFAFA"/>
<path d="M4256.63 1260.15C4248.4 1260.53 4241.68 1261.53 4235.27 1260.51C4215.46 1257.36 4201.84 1243.01 4199.32 1223.3C4198.65 1218.06 4198.73 1212.68 4198.84 1207.38C4199.42 1176.72 4228.8 1154.46 4263.14 1167.27C4269.12 1169.5 4274.8 1173.75 4279.38 1178.31C4296.94 1195.8 4297.55 1243.31 4265.73 1257.09C4263.3 1258.14 4260.77 1258.93 4256.63 1260.15Z" fill="#FAFAFA"/>
<path d="M4902.38 650.63C4908.08 653.232 4912.49 654.856 4916.3 657.393C4930 666.515 4933.84 679.934 4932.17 695.552C4930.58 710.313 4921.95 719.557 4908.75 725.011C4905.12 726.511 4901.22 727.542 4897.34 728.214C4885.21 730.317 4836.04 729.837 4822.15 727.703C4818.9 714.313 4818.23 679.454 4820.77 649.806C4833.82 645.3 4847.72 647.939 4861.27 647.828C4874.45 647.719 4887.63 649.256 4902.38 650.63Z" fill="#1578BD"/>
<path d="M4909.76 544.403C4922.69 554.074 4927.34 565.843 4925.21 580.156C4923.3 593.049 4915.91 602.182 4903.93 606.79C4897.22 609.367 4889.86 611.229 4882.73 611.481C4864.18 612.138 4845.59 611.774 4827.02 611.667C4825.2 611.656 4823.39 610.605 4821.78 610.1C4819.01 594.472 4818.72 558.268 4821.28 537.601C4824.67 537.13 4828.4 536.205 4832.14 536.162C4846.73 535.994 4861.32 536.161 4875.91 536.093C4887.36 536.04 4898.37 537.703 4909.76 544.403Z" fill="#1578BD"/>
<path d="M5319.93 560.804C5349.77 535.187 5382.99 530.656 5418.46 539.675C5449.89 547.664 5470.73 567.885 5480.52 598.867C5488.2 623.136 5487.79 647.617 5478.71 671.344C5466.23 703.949 5441.96 722.751 5407.6 728.317C5391.67 730.897 5375.57 730.698 5359.99 726.522C5319.97 715.799 5294.17 684.435 5291.68 638.467C5290.1 609.449 5297.74 583.076 5319.93 560.804Z" fill="#1176BD"/>
<path d="M3986.8 536.099C4001.91 537.266 4015.35 537.244 4028.26 539.822C4065.12 547.178 4088.16 569.511 4096.59 606.411C4100.5 623.502 4100.64 640.803 4097.31 657.868C4089.9 695.797 4065.23 719.684 4026.8 727.201C4012.53 729.992 3971.52 730.325 3953.49 727.796C3953.08 727.269 3952.64 726.767 3952.28 726.207C3951.94 725.665 3951.45 725.064 3951.45 724.487C3951.25 667.998 3951.09 611.507 3950.93 555.017C3950.91 549.754 3950.93 544.491 3950.93 538.288C3955.52 537.456 3959.21 536.36 3962.95 536.2C3970.25 535.889 3977.57 536.101 3986.8 536.099Z" fill="#1176BD"/>
<path d="M5134.39 538.91C5161.63 544.623 5169.52 574.03 5163.83 593.026C5158.1 612.161 5144.6 621.571 5126.15 623.519C5105.8 625.667 5085.25 624.577 5065.12 624.048C5061.44 609.005 5060.94 558.479 5063.97 538.449C5079.52 535.121 5113.63 535.126 5134.39 538.91Z" fill="#1578BD"/>
<path d="M5880.47 703.452C5880.62 648.278 5880.77 595.033 5881 541.787C5881.01 540.609 5882.04 539.436 5882.59 538.261C5883.08 537.864 5883.56 537.147 5884.07 537.116C5908.63 535.614 5933.13 534.638 5957.57 539.315C6000.29 547.492 6023.21 579.047 6028.06 613.473C6030.43 630.302 6029.97 646.706 6026.37 663.022C6018.71 697.758 5991.06 722.444 5953.55 727.62C5930.47 730.807 5907.2 729.97 5883.7 728.846C5878.46 721.199 5881.27 713.009 5880.47 703.452Z" fill="#1578BD"/>
<path d="M4658.1 673.021C4629.21 677.34 4600.82 675.228 4571.98 675.951C4571.98 672.155 4571.26 669.376 4572.09 667.176C4584.86 633.072 4597.81 599.037 4610.8 565.015C4611.45 563.319 4612.79 561.887 4613.87 560.241C4622.09 569.37 4641.33 617.344 4658.1 673.021Z" fill="#1578BD"/>
<path d="M5641.32 675.884C5637.18 675.441 5634.78 675.012 5630.92 674.319C5644.43 634.536 5659.99 596.828 5675.14 555.55C5683.52 570.29 5687 583.338 5691.8 595.795C5696.82 608.781 5702.04 621.696 5706.56 634.855C5711 647.799 5717.84 660.074 5719.05 673.901C5717.07 674.71 5715.89 675.609 5714.71 675.617C5690.83 675.772 5666.95 675.824 5641.32 675.884Z" fill="#1578BD"/>
<path d="M2437.1 745.398C2419.23 716.26 2410.55 686.115 2410.87 653.226C2411.61 577.137 2465.35 509.908 2539.71 493.088C2626.91 473.363 2712.44 524.351 2736.9 608.014C2764.64 702.853 2707.07 800.044 2609.5 818.63C2545.78 830.767 2491.25 810.85 2448.59 761.043C2444.71 756.511 2441.47 751.434 2437.1 745.398Z" fill="#1176BC"/>
<path d="M6061.51 1222.39C6060.3 1225.13 6059.54 1226.78 6058.52 1226.97C6046.09 1229.26 6033.71 1228.75 6020.24 1227.3C6018.65 1214.4 6019 1202.67 6020.06 1189.88C6033.26 1186.17 6046.21 1187.59 6059.7 1188.86C6063.78 1199.52 6061.44 1210.19 6061.51 1222.39Z" fill="#1578BD"/>
</svg>
